<svg xmlns="http://www.w3.org/2000/svg" viewBox="0 0 399 18.47">
  <defs>
    <style>
      .cls-1 {
        fill: #6D6D74;
      }
      .cls-2 {
        fill: #C43B41;
      }
    </style>
  </defs>
  <title>Asset 4</title>
  <g id="Layer_2" data-name="Layer 2">
    <g id="Layer_1-2" data-name="Layer 1"><path
      class="cls-1"
      d="M14.38,3.78C12.65,1.75,9.6,1.7,8.84,1.7,5.5,1.7,3.6,3.15,3.6,4.85S5.71,7.28,8.54,8.12A52.64,52.64,0,0,1,14.17,9.9c1.23.51,3,1.4,3,3.27,0,2.84-4,4.95-8.8,4.95a10.68,10.68,0,0,1-6.56-1.78A5.77,5.77,0,0,1,0,14.49L1.61,14a6,6,0,0,0,1.52,1.62A9.22,9.22,0,0,0,8.42,17.1c3.81,0,6.81-1.67,6.81-3.91,0-.91-.59-1.88-2.75-2.66-.8-.28-2.45-.79-4.78-1.47C4.91,8.25,3.51,7.79,2.54,6.82A2.65,2.65,0,0,1,1.65,4.9c0-2,2.2-4.21,7.23-4.21,2.83,0,5.41.81,6.85,2.41Z"/><path class="cls-1" d="M46.57.91l7.78,14.36L64.55,0l9.56,15.27L82.95.91h2L74.11,18.47,64.55,3.1,54.06,18.47,44.54.91Z"/><path class="cls-1" d="M128,12.28H116l-3.76,5.56h-2L122.12.41l11.72,17.43h-2Zm-.68-1-5.29-8-5.37,8Z"/><path class="cls-1" d="M165.47,9.79v8h-1.86V.91h5.46c4.61,0,8.25,1.52,8.25,4.42S174,9.79,169.11,9.79Zm0-1h3.72c3.68,0,6.18-1.29,6.18-3.43S173,1.93,168.9,1.93h-3.43Z"/><path class="cls-1" d="M209.72.91V17.84h-1.86V.91Z"/><path
      class="cls-1"
      d="M277.94.91h6.18c4.91,0,7.78,1.7,7.78,4.24,0,1.83-1.44,3-3.3,3.7,3.68.36,5.84,2.06,5.84,4.24,0,3-3.64,4.74-8.76,4.74h-7.74Zm1.86,7.66h4.48a8.12,8.12,0,0,0,3.85-.71A2.88,2.88,0,0,0,290,5.28a3,3,0,0,0-1.9-2.64,11.44,11.44,0,0,0-4.7-.71H279.8Zm0,8.25h4.74c1.9,0,4.23,0,6.13-1a2.84,2.84,0,0,0,1.82-2.59c0-1.52-.89-2.56-3-3.15a20.17,20.17,0,0,0-5.29-.48h-4.4Z"/><path class="cls-1" d="M389.15,9.21l-7.4-8.3h2l6.39,7.23L396.59.91h2l-7.36,8.3L399,17.84h-2l-6.81-7.61-6.72,7.61h-2Z"/><path class="cls-2" d="M347.77,9.46A8.69,8.69,0,1,1,339.08.77,8.69,8.69,0,0,1,347.77,9.46ZM340,1.07a7.5,7.5,0,1,0,7.5,7.5A7.5,7.5,0,0,0,340,1.07Z"/></g>
  </g>
</svg>
